<svg xmlns="http://www.w3.org/2000/svg" xmlns:svg="http://www.w3.org/2000/svg" xmlns:xlink="http://www.w3.org/1999/xlink" id="svg2" width="139.467" height="172.283" version="1.1" viewBox="56.621 54.06 104.601 129.212"><metadata id="metadata13"/><defs id="defs11"><radialGradient id="radialGradient1480" cx="61.519" cy="132.286" r="29.037" fx="61.519" fy="132.286" gradientTransform="matrix(2.382716e-8,-0.296405,1.43676,4.683673e-7,-128.544,150.5202)" gradientUnits="userSpaceOnUse" xlink:href="#linearGradient2795"/><linearGradient id="linearGradient2795"><stop style="stop-color:#b8b8b8;stop-opacity:.49803922" id="stop2797" offset="0"/><stop style="stop-color:#7f7f7f;stop-opacity:0" id="stop2799" offset="1"/></linearGradient><linearGradient id="linearGradient1475" x1="150.961" x2="112.031" y1="192.352" y2="137.273" gradientTransform="matrix(0.79323321,0,0,0.80089141,57.605396,58.202768)" gradientUnits="userSpaceOnUse" xlink:href="#linearGradient4671"/><linearGradient id="linearGradient4671"><stop style="stop-color:#ffd43b;stop-opacity:1" id="stop4673" offset="0"/><stop style="stop-color:#ffe873;stop-opacity:1" id="stop4675" offset="1"/></linearGradient><linearGradient id="linearGradient1478" x1="26.649" x2="135.665" y1="20.604" y2="114.398" gradientTransform="matrix(0.562541,0,0,0.567972,-9.399749,-5.305317)" gradientUnits="userSpaceOnUse" xlink:href="#linearGradient4689"/><linearGradient id="linearGradient4689"><stop style="stop-color:#5a9fd4;stop-opacity:1" id="stop4691" offset="0"/><stop style="stop-color:#306998;stop-opacity:1" id="stop4693" offset="1"/></linearGradient><linearGradient id="linearGradient4040" x1="26.649" x2="135.665" y1="20.604" y2="114.398" gradientTransform="matrix(0.79323321,0,0,0.80089141,57.605396,58.202768)" gradientUnits="userSpaceOnUse" xlink:href="#linearGradient4689"/><linearGradient id="linearGradient4227" x1="26.649" x2="135.665" y1="20.604" y2="114.398" gradientTransform="matrix(0.79323321,0,0,0.80089141,57.605396,58.202768)" gradientUnits="userSpaceOnUse" xlink:href="#linearGradient4689"/><linearGradient id="linearGradient4229" x1="150.961" x2="112.031" y1="192.352" y2="137.273" gradientTransform="matrix(0.79323321,0,0,0.80089141,57.605396,58.202768)" gradientUnits="userSpaceOnUse" xlink:href="#linearGradient4671"/></defs><g id="g4209" transform="matrix(1.0176699,0,0,1.0176699,-1.0084453,-0.95524014)"><g id="g4079" transform="matrix(0.65164348,0,0,0.65164348,5.8404193,5.3798232)"><path style="opacity:.57347669;fill:url(#linearGradient4227);fill-opacity:1" id="path1948" d="m 156.18462,74.705452 c -6.46336,0.02997 -12.63573,0.581274 -18.06677,1.542286 -15.99918,2.826542 -18.90402,8.742714 -18.90402,19.653124 v 14.409348 h 37.80803 v 4.80312 h -37.80803 -14.18902 c -10.988075,0 -20.60954,6.60447 -23.619006,19.16841 -3.471376,14.40121 -3.625358,23.38778 0,38.42495 2.687525,11.19308 9.105724,19.16839 20.093776,19.16841 h 12.99926 v -17.2736 c 0,-12.47917 10.79727,-23.4868 23.61901,-23.48682 h 37.76396 c 10.51214,0 18.90401,-8.65536 18.90401,-19.21247 V 95.900862 c 0,-10.246187 -8.64383,-17.943073 -18.90401,-19.653124 -6.49486,-1.081151 -13.23384,-1.572303 -19.69719,-1.542286 z m -20.4463,11.589192 c 3.90531,0 7.09451,3.241285 7.09451,7.226691 0,3.971289 -3.1892,7.182645 -7.09451,7.182645 -3.91931,0 -7.09451,-3.211356 -7.09451,-7.182645 0,-3.985406 3.1752,-7.226691 7.09451,-7.226691 z"/><path style="opacity:.57347669;fill:url(#linearGradient4229);fill-opacity:1" id="path1950" d="m 199.50081,115.11333 v 16.78888 c 0,13.0162 -11.03522,23.97152 -23.619,23.97154 h -37.76396 c -10.34418,0 -18.90402,8.85321 -18.90402,19.21247 v 36.00133 c 0,10.24621 8.90978,16.27289 18.90402,19.21249 11.9679,3.51902 23.44448,4.15501 37.76396,0 9.51831,-2.75588 18.90401,-8.30206 18.90401,-19.21249 v -14.40933 h -37.76396 v -4.80312 h 37.76396 18.90401 c 10.98807,0 15.08267,-7.66442 18.904,-19.16841 3.94732,-11.84318 3.77936,-23.23233 0,-38.42495 -2.71552,-10.93868 -7.90195,-19.16841 -18.904,-19.16841 z m -21.23948,91.17112 c 3.91931,0 7.09451,3.21136 7.09451,7.18263 0,3.98542 -3.1752,7.22672 -7.09451,7.22672 -3.90531,0 -7.09451,-3.2413 -7.09451,-7.22672 0,-3.97127 3.1892,-7.18263 7.09451,-7.18263 z"/></g><g id="g4149" transform="matrix(0.66750079,0,0,0.66750079,2.8842973,20.787868)"><g style="opacity:.74193552;fill:none" id="use3154" transform="matrix(0.15261804,0,0,0.15261804,72.423903,200.62356)"><path id="path3940" style="fill:#d48c00;fill-opacity:1;stroke:#000;stroke-width:.77165896;stroke-linecap:round;stroke-linejoin:round;stroke-miterlimit:10.03750038;stroke-dasharray:none" d="m 57.4709,154.4603 1.75,0.175 2.875,0.45 3.925,0.9 4.85,1.4 5.65,2.05 6.3,2.725 6.8,3.475 7.1,4.2 7.25,4.925 7.225,5.6 7.025,6.2 6.65,6.65 6.2,7.025 5.6,7.225 4.925,7.25 4.2,7.1 3.475,6.8 2.725,6.3 2.05,5.65 1.4,4.85 0.9,3.925 0.45,2.875 0.175,1.75 0.025,0.59998 0.025,-0.60002 0.175,-1.75 0.45,-2.875 0.9,-3.925 1.4,-4.85 2.05,-5.65 2.725,-6.3 3.475,-6.8 4.2,-7.1 4.925,-7.25 5.6,-7.225 6.2,-7.025 6.65,-6.65 7.025,-6.2 7.225,-5.6 7.25,-4.925 7.1,-4.2 6.8,-3.475 6.3,-2.725 5.65,-2.05 4.85,-1.4 3.925,-0.9 2.875,-0.45 1.75,-0.175 0.59998,-0.025 -0.60002,-0.025 -1.75,-0.175 -2.875,-0.45 -3.925,-0.9 -4.85,-1.4 -5.65,-2.05 -6.3,-2.725 -6.8,-3.475 -7.1,-4.2 -7.25,-4.925 -7.225,-5.6 -7.025,-6.2 -6.64992,-6.65004 -6.2,-7.025 -5.6,-7.225 -4.925,-7.25 -4.2,-7.1 -3.475,-6.8 -2.725,-6.3 -2.05,-5.65 -1.4,-4.85 -0.9,-3.925 -0.45,-2.875 -0.175,-1.75 -0.025,-0.59998 -0.025,0.60002 -0.175,1.75 -0.45,2.875 -0.9,3.925 -1.4,4.85 -2.05,5.65 -2.725,6.3 -3.475,6.8 -4.2,7.1 -4.925,7.25 -5.6,7.225 -6.20008,7.025 -6.65,6.65 -7.025,6.2 -7.225,5.6 -7.25,4.925 -7.1,4.2 -6.8,3.475 -6.3,2.725 -5.65,2.05 -4.85,1.4 -3.925,0.9 -2.875,0.45 -1.75,0.175 -0.59998,0.025 z"/></g><g id="use4119" transform="matrix(0.15261804,0,0,0.15261804,72.423903,200.62356)" style="opacity:.74193552;fill:none;stroke-width:5.24184418;stroke-miterlimit:10.03750038;stroke-dasharray:none"><path d="m 57.4709,154.4603 1.75,0.175 2.875,0.45 3.925,0.9 4.85,1.4 5.65,2.05 6.3,2.725 6.8,3.475 7.1,4.2 7.25,4.925 7.225,5.6 7.025,6.2 6.65,6.65 6.2,7.025 5.6,7.225 4.925,7.25 4.2,7.1 3.475,6.8 2.725,6.3 2.05,5.65 1.4,4.85 0.9,3.925 0.45,2.875 0.175,1.75 0.025,0.59998 0.025,-0.60002 0.175,-1.75 0.45,-2.875 0.9,-3.925 1.4,-4.85 2.05,-5.65 2.725,-6.3 3.475,-6.8 4.2,-7.1 4.925,-7.25 5.6,-7.225 6.2,-7.025 6.65,-6.65 7.025,-6.2 7.225,-5.6 7.25,-4.925 7.1,-4.2 6.8,-3.475 6.3,-2.725 5.65,-2.05 4.85,-1.4 3.925,-0.9 2.875,-0.45 1.75,-0.175 0.59998,-0.025 -0.60002,-0.025 -1.75,-0.175 -2.875,-0.45 -3.925,-0.9 -4.85,-1.4 -5.65,-2.05 -6.3,-2.725 -6.8,-3.475 -7.1,-4.2 -7.25,-4.925 -7.225,-5.6 -7.025,-6.2 -6.64992,-6.65004 -6.2,-7.025 -5.6,-7.225 -4.925,-7.25 -4.2,-7.1 -3.475,-6.8 -2.725,-6.3 -2.05,-5.65 -1.4,-4.85 -0.9,-3.925 -0.45,-2.875 -0.175,-1.75 -0.025,-0.59998 -0.025,0.60002 -0.175,1.75 -0.45,2.875 -0.9,3.925 -1.4,4.85 -2.05,5.65 -2.725,6.3 -3.475,6.8 -4.2,7.1 -4.925,7.25 -5.6,7.225 -6.20008,7.025 -6.65,6.65 -7.025,6.2 -7.225,5.6 -7.25,4.925 -7.1,4.2 -6.8,3.475 -6.3,2.725 -5.65,2.05 -4.85,1.4 -3.925,0.9 -2.875,0.45 -1.75,0.175 -0.59998,0.025 z" style="fill:#d48c00;fill-opacity:1;stroke:#000;stroke-width:7.71658897;stroke-linecap:round;stroke-linejoin:round;stroke-miterlimit:10.03750038;stroke-dasharray:none" id="path4147"/></g><g id="use4121" transform="matrix(0.15261804,0,0,0.15261804,102.98566,200.62356)" style="opacity:.74193552;fill:none;stroke-width:5.24184418;stroke-miterlimit:10.03750038;stroke-dasharray:none"><path d="m 57.4709,154.4603 1.75,0.175 2.875,0.45 3.925,0.9 4.85,1.4 5.65,2.05 6.3,2.725 6.8,3.475 7.1,4.2 7.25,4.925 7.225,5.6 7.025,6.2 6.65,6.65 6.2,7.025 5.6,7.225 4.925,7.25 4.2,7.1 3.475,6.8 2.725,6.3 2.05,5.65 1.4,4.85 0.9,3.925 0.45,2.875 0.175,1.75 0.025,0.59998 0.025,-0.60002 0.175,-1.75 0.45,-2.875 0.9,-3.925 1.4,-4.85 2.05,-5.65 2.725,-6.3 3.475,-6.8 4.2,-7.1 4.925,-7.25 5.6,-7.225 6.2,-7.025 6.65,-6.65 7.025,-6.2 7.225,-5.6 7.25,-4.925 7.1,-4.2 6.8,-3.475 6.3,-2.725 5.65,-2.05 4.85,-1.4 3.925,-0.9 2.875,-0.45 1.75,-0.175 0.59998,-0.025 -0.60002,-0.025 -1.75,-0.175 -2.875,-0.45 -3.925,-0.9 -4.85,-1.4 -5.65,-2.05 -6.3,-2.725 -6.8,-3.475 -7.1,-4.2 -7.25,-4.925 -7.225,-5.6 -7.025,-6.2 -6.64992,-6.65004 -6.2,-7.025 -5.6,-7.225 -4.925,-7.25 -4.2,-7.1 -3.475,-6.8 -2.725,-6.3 -2.05,-5.65 -1.4,-4.85 -0.9,-3.925 -0.45,-2.875 -0.175,-1.75 -0.025,-0.59998 -0.025,0.60002 -0.175,1.75 -0.45,2.875 -0.9,3.925 -1.4,4.85 -2.05,5.65 -2.725,6.3 -3.475,6.8 -4.2,7.1 -4.925,7.25 -5.6,7.225 -6.20008,7.025 -6.65,6.65 -7.025,6.2 -7.225,5.6 -7.25,4.925 -7.1,4.2 -6.8,3.475 -6.3,2.725 -5.65,2.05 -4.85,1.4 -3.925,0.9 -2.875,0.45 -1.75,0.175 -0.59998,0.025 z" style="fill:#d48c00;fill-opacity:1;stroke:#000;stroke-width:7.71658897;stroke-linecap:round;stroke-linejoin:round;stroke-miterlimit:10.03750038;stroke-dasharray:none" id="path4143"/></g><g id="use4123" transform="matrix(0.15261804,0,0,0.15261804,133.54743,200.62356)" style="opacity:.74193552;fill:none;stroke-width:5.24184418;stroke-miterlimit:10.03750038;stroke-dasharray:none"><path d="m 57.4709,154.4603 1.75,0.175 2.875,0.45 3.925,0.9 4.85,1.4 5.65,2.05 6.3,2.725 6.8,3.475 7.1,4.2 7.25,4.925 7.225,5.6 7.025,6.2 6.65,6.65 6.2,7.025 5.6,7.225 4.925,7.25 4.2,7.1 3.475,6.8 2.725,6.3 2.05,5.65 1.4,4.85 0.9,3.925 0.45,2.875 0.175,1.75 0.025,0.59998 0.025,-0.60002 0.175,-1.75 0.45,-2.875 0.9,-3.925 1.4,-4.85 2.05,-5.65 2.725,-6.3 3.475,-6.8 4.2,-7.1 4.925,-7.25 5.6,-7.225 6.2,-7.025 6.65,-6.65 7.025,-6.2 7.225,-5.6 7.25,-4.925 7.1,-4.2 6.8,-3.475 6.3,-2.725 5.65,-2.05 4.85,-1.4 3.925,-0.9 2.875,-0.45 1.75,-0.175 0.59998,-0.025 -0.60002,-0.025 -1.75,-0.175 -2.875,-0.45 -3.925,-0.9 -4.85,-1.4 -5.65,-2.05 -6.3,-2.725 -6.8,-3.475 -7.1,-4.2 -7.25,-4.925 -7.225,-5.6 -7.025,-6.2 -6.64992,-6.65004 -6.2,-7.025 -5.6,-7.225 -4.925,-7.25 -4.2,-7.1 -3.475,-6.8 -2.725,-6.3 -2.05,-5.65 -1.4,-4.85 -0.9,-3.925 -0.45,-2.875 -0.175,-1.75 -0.025,-0.59998 -0.025,0.60002 -0.175,1.75 -0.45,2.875 -0.9,3.925 -1.4,4.85 -2.05,5.65 -2.725,6.3 -3.475,6.8 -4.2,7.1 -4.925,7.25 -5.6,7.225 -6.20008,7.025 -6.65,6.65 -7.025,6.2 -7.225,5.6 -7.25,4.925 -7.1,4.2 -6.8,3.475 -6.3,2.725 -5.65,2.05 -4.85,1.4 -3.925,0.9 -2.875,0.45 -1.75,0.175 -0.59998,0.025 z" style="fill:#d48c00;fill-opacity:1;stroke:#000;stroke-width:7.71658897;stroke-linecap:round;stroke-linejoin:round;stroke-miterlimit:10.03750038;stroke-dasharray:none" id="path4139"/></g><g id="use4125" transform="matrix(0.15261804,0,0,0.15261804,164.10919,200.62356)" style="opacity:.74193552;fill:none;stroke-width:5.24184418;stroke-miterlimit:10.03750038;stroke-dasharray:none"><path d="m 57.4709,154.4603 1.75,0.175 2.875,0.45 3.925,0.9 4.85,1.4 5.65,2.05 6.3,2.725 6.8,3.475 7.1,4.2 7.25,4.925 7.225,5.6 7.025,6.2 6.65,6.65 6.2,7.025 5.6,7.225 4.925,7.25 4.2,7.1 3.475,6.8 2.725,6.3 2.05,5.65 1.4,4.85 0.9,3.925 0.45,2.875 0.175,1.75 0.025,0.59998 0.025,-0.60002 0.175,-1.75 0.45,-2.875 0.9,-3.925 1.4,-4.85 2.05,-5.65 2.725,-6.3 3.475,-6.8 4.2,-7.1 4.925,-7.25 5.6,-7.225 6.2,-7.025 6.65,-6.65 7.025,-6.2 7.225,-5.6 7.25,-4.925 7.1,-4.2 6.8,-3.475 6.3,-2.725 5.65,-2.05 4.85,-1.4 3.925,-0.9 2.875,-0.45 1.75,-0.175 0.59998,-0.025 -0.60002,-0.025 -1.75,-0.175 -2.875,-0.45 -3.925,-0.9 -4.85,-1.4 -5.65,-2.05 -6.3,-2.725 -6.8,-3.475 -7.1,-4.2 -7.25,-4.925 -7.225,-5.6 -7.025,-6.2 -6.64992,-6.65004 -6.2,-7.025 -5.6,-7.225 -4.925,-7.25 -4.2,-7.1 -3.475,-6.8 -2.725,-6.3 -2.05,-5.65 -1.4,-4.85 -0.9,-3.925 -0.45,-2.875 -0.175,-1.75 -0.025,-0.59998 -0.025,0.60002 -0.175,1.75 -0.45,2.875 -0.9,3.925 -1.4,4.85 -2.05,5.65 -2.725,6.3 -3.475,6.8 -4.2,7.1 -4.925,7.25 -5.6,7.225 -6.20008,7.025 -6.65,6.65 -7.025,6.2 -7.225,5.6 -7.25,4.925 -7.1,4.2 -6.8,3.475 -6.3,2.725 -5.65,2.05 -4.85,1.4 -3.925,0.9 -2.875,0.45 -1.75,0.175 -0.59998,0.025 z" style="fill:#d48c00;fill-opacity:1;stroke:#000;stroke-width:7.71658897;stroke-linecap:round;stroke-linejoin:round;stroke-miterlimit:10.03750038;stroke-dasharray:none" id="path4135"/></g><g id="use4127" transform="matrix(0.15261804,0,0,0.15261804,194.67095,200.62356)" style="opacity:.74193552;fill:none;stroke-width:5.24184418;stroke-miterlimit:10.03750038;stroke-dasharray:none"><path d="m 57.4709,154.4603 1.75,0.175 2.875,0.45 3.925,0.9 4.85,1.4 5.65,2.05 6.3,2.725 6.8,3.475 7.1,4.2 7.25,4.925 7.225,5.6 7.025,6.2 6.65,6.65 6.2,7.025 5.6,7.225 4.925,7.25 4.2,7.1 3.475,6.8 2.725,6.3 2.05,5.65 1.4,4.85 0.9,3.925 0.45,2.875 0.175,1.75 0.025,0.59998 0.025,-0.60002 0.175,-1.75 0.45,-2.875 0.9,-3.925 1.4,-4.85 2.05,-5.65 2.725,-6.3 3.475,-6.8 4.2,-7.1 4.925,-7.25 5.6,-7.225 6.2,-7.025 6.65,-6.65 7.025,-6.2 7.225,-5.6 7.25,-4.925 7.1,-4.2 6.8,-3.475 6.3,-2.725 5.65,-2.05 4.85,-1.4 3.925,-0.9 2.875,-0.45 1.75,-0.175 0.59998,-0.025 -0.60002,-0.025 -1.75,-0.175 -2.875,-0.45 -3.925,-0.9 -4.85,-1.4 -5.65,-2.05 -6.3,-2.725 -6.8,-3.475 -7.1,-4.2 -7.25,-4.925 -7.225,-5.6 -7.025,-6.2 -6.64992,-6.65004 -6.2,-7.025 -5.6,-7.225 -4.925,-7.25 -4.2,-7.1 -3.475,-6.8 -2.725,-6.3 -2.05,-5.65 -1.4,-4.85 -0.9,-3.925 -0.45,-2.875 -0.175,-1.75 -0.025,-0.59998 -0.025,0.60002 -0.175,1.75 -0.45,2.875 -0.9,3.925 -1.4,4.85 -2.05,5.65 -2.725,6.3 -3.475,6.8 -4.2,7.1 -4.925,7.25 -5.6,7.225 -6.20008,7.025 -6.65,6.65 -7.025,6.2 -7.225,5.6 -7.25,4.925 -7.1,4.2 -6.8,3.475 -6.3,2.725 -5.65,2.05 -4.85,1.4 -3.925,0.9 -2.875,0.45 -1.75,0.175 -0.59998,0.025 z" style="fill:none;stroke:#000;stroke-width:7.71658897;stroke-linecap:round;stroke-linejoin:round;stroke-miterlimit:10.03750038;stroke-dasharray:none" id="path4131"/></g></g></g></svg>